<?xml version="1.0" standalone="no"?>
<!DOCTYPE svg PUBLIC "-//W3C//DTD SVG 20010904//EN"
 "http://www.w3.org/TR/2001/REC-SVG-20010904/DTD/svg10.dtd">
<svg version="1.0" xmlns="http://www.w3.org/2000/svg"
 width="300.000000pt" height="300.000000pt" viewBox="0 0 300.000000 300.000000"
 preserveAspectRatio="xMidYMid meet">
<metadata>
Created by potrace 1.11, written by Peter Selinger 2001-2013
</metadata>
<g transform="translate(0.000000,300.000000) scale(0.100000,-0.100000)"
fill="#000000" stroke="none">
<path d="M413 2040 c-44 -18 -38 -84 21 -213 59 -130 70 -117 -98 -117 l-146
0 0 -30 0 -31 298 1 c305 1 306 1 364 43 36 25 66 29 99 12 35 -19 49 -43 49
-90 0 -81 -99 -115 -158 -55 l-30 30 -144 0 -145 0 5 -30 4 -30 -256 0 -256 0
0 -30 0 -30 271 0 271 0 41 35 c51 44 88 46 128 6 42 -42 41 -99 -2 -135 -41
-35 -80 -34 -122 4 -19 17 -40 30 -46 30 -6 0 -11 -13 -11 -30 l0 -30 -120 0
-120 0 0 -30 0 -30 274 0 274 0 34 34 c34 34 47 37 121 27 13 -2 47 -65 47
-87 0 -28 -36 -73 -68 -85 -32 -12 -87 5 -107 34 -15 21 -24 22 -188 25 l-172
3 -32 -54 c-18 -30 -52 -76 -76 -103 -23 -27 -50 -61 -60 -76 -17 -27 -16 -29
3 -48 11 -11 30 -20 43 -21 12 0 31 -2 42 -5 113 -22 714 -22 875 1 14 2 45 6
70 10 70 10 109 25 120 45 40 75 -60 327 -203 510 -100 128 -280 284 -447 386
-179 110 -381 180 -447 154z"/>
<path d="M1923 2039 c-55 -10 -111 -40 -149 -81 -54 -57 -67 -94 -72 -200 l-4
-98 -49 0 -49 0 4 -105 c2 -58 7 -109 10 -113 8 -7 13 -8 59 -10 l27 -2 0
-255 0 -255 150 0 150 0 0 255 0 255 33 1 c17 1 46 3 62 4 17 2 37 3 45 4 12
1 15 22 17 111 l3 110 -80 0 -80 0 0 55 c0 48 3 57 23 66 17 8 33 6 70 -10
l47 -20 22 42 c40 75 77 162 78 178 0 43 -204 87 -317 68z"/>
<path d="M2576 1653 c-27 -8 -66 -26 -85 -39 l-36 -24 -3 35 -3 35 -130 0
-129 0 0 -366 0 -365 121 4 c67 3 124 10 128 15 3 6 7 102 9 214 3 192 5 204
25 226 33 35 75 54 111 49 57 -8 79 -28 92 -89 1 -5 2 -100 3 -213 l1 -205
131 0 131 0 -6 251 c-7 268 -11 310 -31 349 -20 39 -79 95 -120 114 -48 23
-147 27 -209 9z"/>
<path d="M888 1650 c-32 -19 -4 -75 31 -62 32 12 38 33 15 56 -18 18 -23 19
-46 6z"/>
<path d="M658 1473 c-23 -6 -34 -43 -17 -54 40 -25 79 5 57 45 -9 16 -11 17
-40 9z"/>
<path d="M945 1293 c-19 -19 -16 -42 7 -57 24 -15 53 13 44 42 -9 27 -32 34
-51 15z"/>
</g>
</svg>
