<?xml version="1.0" standalone="no"?>
<!DOCTYPE svg PUBLIC "-//W3C//DTD SVG 20010904//EN"
 "http://www.w3.org/TR/2001/REC-SVG-20010904/DTD/svg10.dtd">
<svg version="1.0" xmlns="http://www.w3.org/2000/svg"
 width="159.000000pt" height="159.000000pt" viewBox="0 0 159.000000 159.000000"
 preserveAspectRatio="xMidYMid meet">
<metadata>
Created by potrace 1.11, written by Peter Selinger 2001-2013
</metadata>
<g transform="translate(0.000000,159.000000) scale(0.100000,-0.100000)"
fill="#000000" stroke="none">
<path d="M398 1318 c-28 -28 -19 -75 37 -205 25 -56 45 -104 45 -107 0 -3 -65
-6 -145 -6 l-145 0 0 -31 0 -30 308 3 308 3 33 28 c43 36 72 42 110 23 37 -20
51 -44 51 -91 0 -81 -99 -115 -158 -55 l-30 30 -144 0 -145 0 5 -30 4 -30
-256 0 -256 0 0 -30 0 -30 271 0 271 0 41 35 c52 45 89 46 128 4 40 -42 40
-90 0 -130 -39 -39 -79 -39 -124 1 -19 16 -40 30 -46 30 -6 0 -11 -13 -11 -30
l0 -30 -120 0 -120 0 0 -30 0 -30 274 0 274 0 35 35 c31 31 39 34 78 31 98
-10 120 -130 32 -171 -42 -20 -75 -14 -111 23 -27 27 -27 27 -197 30 l-170 3
-32 -53 c-17 -29 -49 -73 -70 -98 -97 -111 -99 -129 -19 -149 113 -28 736 -32
926 -6 159 23 190 40 190 108 0 98 -93 301 -207 449 -197 258 -612 530 -842
552 -43 4 -56 1 -73 -16z"/>
<path d="M887 935 c-18 -17 -12 -51 10 -60 15 -5 53 20 53 36 0 10 -29 39 -40
39 -5 0 -15 -7 -23 -15z"/>
<path d="M645 753 c-18 -18 -19 -25 -3 -41 18 -18 46 -15 57 6 19 36 -25 65
-54 35z"/>
<path d="M945 584 c-19 -20 -16 -43 7 -58 14 -8 22 -7 35 6 14 14 15 22 5 43
-13 29 -24 31 -47 9z"/>
</g>
</svg>
