<?xml version="1.0" standalone="no"?>
<!DOCTYPE svg PUBLIC "-//W3C//DTD SVG 20010904//EN"
 "http://www.w3.org/TR/2001/REC-SVG-20010904/DTD/svg10.dtd">
<svg version="1.0" xmlns="http://www.w3.org/2000/svg"
 width="3542.000000pt" height="3542.000000pt" viewBox="0 0 3542.000000 3542.000000"
 preserveAspectRatio="xMidYMid meet">
<metadata>
Created by potrace 1.11, written by Peter Selinger 2001-2013
</metadata>
<g transform="translate(0.000000,3542.000000) scale(0.100000,-0.100000)"
fill="#000000" stroke="none">
<path d="M17627 35074 c-1 -1 -141 -4 -312 -8 -312 -6 -402 -9 -595 -21 -261
-15 -289 -17 -450 -30 -36 -3 -90 -8 -120 -10 -30 -2 -75 -6 -100 -9 -25 -3
-72 -8 -105 -11 -74 -6 -162 -15 -195 -20 -14 -2 -52 -7 -85 -10 -33 -4 -71
-8 -85 -10 -14 -2 -56 -7 -95 -11 -38 -3 -72 -8 -75 -9 -3 -2 -34 -6 -70 -10
-36 -3 -72 -8 -80 -10 -8 -2 -40 -7 -70 -10 -30 -4 -57 -8 -60 -10 -3 -2 -34
-6 -70 -10 -36 -4 -68 -9 -71 -11 -3 -1 -28 -6 -56 -9 -27 -3 -60 -8 -74 -10
-13 -3 -40 -8 -59 -11 -49 -7 -81 -13 -106 -18 -12 -2 -39 -7 -60 -10 -38 -6
-285 -51 -334 -61 -14 -3 -38 -8 -55 -10 -16 -3 -38 -8 -47 -11 -9 -3 -27 -7
-40 -9 -13 -3 -34 -7 -48 -10 -14 -3 -36 -7 -50 -10 -89 -16 -346 -75 -595
-137 -132 -33 -248 -61 -257 -63 -20 -4 -154 -41 -223 -60 -27 -8 -97 -28
-155 -44 -127 -35 -577 -173 -640 -196 -25 -9 -52 -18 -60 -20 -8 -2 -87 -29
-175 -60 -88 -31 -167 -58 -175 -60 -31 -7 -423 -156 -640 -243 -487 -194
-856 -361 -1370 -619 -201 -101 -376 -190 -390 -198 -14 -8 -106 -59 -205
-113 -210 -115 -396 -222 -578 -333 -71 -43 -131 -79 -133 -79 -5 0 -397 -251
-559 -359 -170 -113 -420 -286 -521 -361 -34 -25 -72 -52 -84 -60 -19 -13
-182 -134 -274 -203 -34 -26 -215 -165 -266 -205 -71 -56 -350 -282 -360 -292
-3 -3 -32 -27 -65 -55 -33 -27 -71 -59 -85 -71 -14 -12 -101 -88 -195 -170
-93 -81 -177 -154 -186 -163 -9 -9 -31 -29 -50 -46 -167 -145 -808 -774 -994
-975 -33 -36 -94 -101 -135 -145 -86 -93 -214 -235 -256 -284 -16 -18 -38 -43
-49 -55 -11 -11 -58 -66 -105 -121 -47 -55 -89 -105 -95 -111 -15 -17 -241
-290 -308 -374 -76 -94 -345 -445 -422 -550 -273 -372 -630 -899 -790 -1163
-11 -19 -70 -116 -131 -218 -136 -225 -179 -298 -299 -514 -15 -27 -31 -54
-35 -60 -4 -5 -32 -57 -63 -115 -30 -58 -87 -166 -127 -240 -65 -123 -305
-606 -343 -690 -8 -19 -33 -73 -55 -120 -21 -47 -76 -170 -122 -275 -45 -104
-86 -198 -91 -207 -13 -25 -221 -541 -223 -553 -1 -5 -4 -15 -8 -20 -4 -6 -16
-40 -28 -75 -13 -36 -28 -78 -35 -95 -39 -89 -225 -635 -309 -905 -55 -176
-181 -616 -201 -700 -2 -8 -28 -112 -58 -230 -93 -367 -193 -822 -231 -1053
-3 -15 -7 -35 -10 -45 -3 -9 -7 -35 -11 -57 -3 -22 -15 -92 -26 -155 -11 -63
-22 -131 -25 -150 -2 -19 -9 -60 -14 -90 -12 -72 -38 -242 -46 -305 -3 -27 -8
-58 -10 -69 -2 -10 -6 -44 -9 -75 -4 -31 -8 -63 -10 -71 -2 -8 -7 -44 -10 -80
-3 -36 -8 -76 -10 -90 -2 -14 -7 -47 -10 -75 -3 -27 -7 -68 -9 -90 -3 -22 -8
-71 -11 -110 -3 -38 -8 -86 -10 -105 -2 -19 -7 -64 -10 -100 -3 -36 -8 -85
-10 -110 -2 -25 -7 -85 -10 -135 -4 -49 -8 -110 -10 -135 -2 -25 -7 -97 -10
-160 -4 -63 -8 -142 -10 -175 -25 -393 -25 -1344 0 -1780 5 -87 14 -241 20
-345 5 -80 20 -268 30 -370 2 -25 7 -79 10 -120 4 -41 8 -86 10 -100 2 -14 6
-54 10 -90 4 -36 8 -76 10 -90 2 -14 6 -50 10 -80 7 -61 23 -195 31 -251 2
-20 7 -54 9 -75 5 -38 14 -103 20 -135 2 -9 6 -40 10 -70 3 -30 27 -173 51
-319 25 -146 47 -274 48 -285 4 -22 16 -88 23 -120 2 -11 6 -31 9 -45 53 -273
80 -395 139 -650 21 -85 38 -162 40 -170 2 -8 13 -53 25 -100 12 -47 23 -92
25 -101 9 -43 79 -300 120 -444 26 -88 51 -176 57 -195 151 -530 484 -1453
700 -1940 11 -25 27 -61 35 -80 8 -19 25 -57 38 -85 12 -27 38 -86 58 -130 20
-44 56 -123 80 -175 24 -52 45 -99 47 -105 5 -16 337 -674 378 -750 21 -38 56
-104 78 -145 40 -74 145 -261 186 -330 11 -19 31 -55 45 -80 13 -25 32 -57 41
-72 9 -14 35 -57 56 -95 61 -107 355 -576 440 -701 42 -62 76 -117 76 -122 0
-4 4 -10 8 -12 4 -1 26 -30 47 -63 22 -33 88 -127 145 -209 58 -82 127 -181
154 -220 27 -39 52 -73 56 -76 3 -3 37 -48 75 -100 132 -182 610 -790 645
-820 3 -3 29 -34 59 -70 29 -36 79 -94 110 -129 31 -36 90 -103 131 -150 41
-47 79 -91 85 -97 5 -6 46 -51 90 -100 313 -346 793 -829 1131 -1137 27 -26
68 -63 90 -84 23 -21 54 -49 70 -63 16 -14 85 -75 154 -135 69 -61 154 -135
190 -165 36 -30 67 -57 70 -61 5 -5 247 -203 360 -295 113 -90 269 -212 385
-299 66 -49 125 -93 130 -98 367 -282 1249 -862 1655 -1089 25 -14 113 -63
195 -110 83 -47 182 -102 220 -123 39 -21 84 -46 100 -55 84 -49 582 -301 736
-373 41 -19 119 -56 174 -82 79 -37 346 -157 480 -214 11 -5 36 -16 55 -24 19
-8 87 -36 150 -62 63 -26 139 -58 168 -71 29 -13 56 -24 60 -24 4 0 36 -12 72
-26 36 -15 88 -35 115 -46 28 -10 59 -23 70 -28 11 -5 110 -41 220 -80 110
-39 216 -77 235 -85 138 -51 855 -278 916 -289 16 -3 26 5 44 37 33 61 150
296 150 302 0 2 11 28 24 57 61 132 193 524 231 683 3 11 7 29 10 40 17 73 54
246 59 279 4 21 8 41 10 45 2 3 7 31 10 61 7 59 14 103 21 135 2 11 7 49 11
85 3 36 8 79 9 95 5 41 15 172 20 275 11 184 5 588 -10 770 -2 25 -7 83 -10
129 -4 46 -8 93 -11 104 -2 12 -6 51 -9 87 -4 36 -8 72 -10 80 -3 8 -7 42 -10
75 -4 33 -8 67 -10 75 -3 8 -7 35 -10 60 -3 25 -7 56 -10 70 -3 14 -7 41 -10
60 -12 72 -71 373 -90 460 -5 20 -45 191 -50 211 -14 63 -109 423 -120 459 -7
25 -26 86 -40 135 -50 169 -153 490 -220 680 -36 105 -68 195 -69 200 -2 6 -6
17 -9 25 -3 8 -40 105 -81 215 -96 259 -105 282 -126 330 -9 22 -21 51 -25 65
-4 14 -14 41 -22 60 -8 19 -19 44 -23 55 -5 11 -23 56 -40 100 -18 44 -36 89
-41 100 -4 11 -49 119 -99 240 -50 121 -95 229 -100 240 -5 11 -73 169 -150
350 -78 182 -148 344 -155 360 -7 17 -30 73 -50 125 -19 52 -40 104 -44 115
-41 93 -117 356 -146 499 -51 255 -51 453 1 633 85 297 268 462 555 502 65 9
250 7 304 -2 17 -3 50 -9 75 -12 24 -4 48 -9 52 -11 4 -2 26 -7 50 -10 46 -7
332 -72 433 -99 33 -9 67 -18 75 -20 297 -66 1101 -351 1465 -520 46 -21 75
-34 210 -95 82 -37 379 -180 395 -190 8 -5 51 -27 95 -49 177 -89 431 -228
618 -337 32 -19 62 -34 68 -34 5 0 9 -4 9 -10 0 -5 4 -10 9 -10 14 0 485 -285
686 -415 28 -17 84 -54 125 -80 87 -56 474 -314 540 -360 25 -17 83 -58 129
-91 46 -32 109 -77 140 -98 335 -234 1019 -766 1306 -1017 17 -15 84 -73 150
-130 179 -154 359 -317 605 -549 91 -85 357 -349 500 -497 253 -261 444 -470
660 -723 40 -47 82 -96 94 -110 302 -354 652 -819 951 -1265 502 -748 877
-1446 1262 -2345 41 -96 81 -188 88 -205 37 -85 95 -233 95 -243 0 -7 2 -12 4
-12 36 0 982 352 1048 390 10 6 23 10 29 10 5 0 36 12 67 26 31 14 79 35 106
46 27 10 68 27 90 37 23 11 93 41 156 69 109 47 157 69 330 150 41 19 108 50
149 69 149 69 688 342 776 393 17 10 57 32 90 50 57 31 380 213 448 254 18 10
75 43 127 74 52 31 103 61 113 67 221 125 920 590 1234 822 62 45 135 98 163
118 27 19 58 41 67 49 20 16 291 227 343 266 28 21 150 120 225 182 217 179
396 329 405 339 3 3 68 61 145 129 77 69 145 129 151 135 6 5 58 53 115 105
295 271 664 640 1006 1006 21 23 68 75 104 115 37 41 77 86 90 100 13 14 49
54 79 89 30 34 63 72 74 84 10 12 37 43 60 69 22 27 50 59 61 71 11 13 36 43
56 67 30 36 146 175 227 274 10 11 42 52 72 90 30 39 62 79 72 90 10 11 74 94
143 185 70 91 134 175 143 187 9 12 24 31 32 43 8 12 62 85 119 163 56 78 114
158 127 177 13 19 53 78 90 130 171 245 458 690 617 955 33 55 67 112 76 127
16 26 79 135 111 193 10 17 31 54 49 83 17 30 50 88 73 130 23 42 77 142 120
222 99 181 382 748 467 935 36 77 79 173 98 213 18 39 33 74 33 76 0 3 16 39
35 80 19 42 35 79 35 82 0 3 12 31 26 62 48 105 223 546 309 777 188 508 412
1220 515 1635 4 19 34 136 64 260 31 124 59 238 62 254 3 16 7 32 9 36 2 4 6
20 9 36 3 16 26 124 50 239 25 116 48 224 51 240 19 96 60 321 71 390 2 17 11
66 19 110 8 44 17 98 20 120 3 23 7 50 9 60 3 18 8 50 22 155 3 19 7 42 9 50
2 8 7 38 10 66 3 28 7 59 9 70 2 10 7 48 11 84 4 36 9 73 11 84 2 10 6 44 9
75 3 31 8 72 10 91 3 19 7 58 10 85 3 28 8 61 10 75 2 14 7 61 11 105 3 44 8
88 10 98 2 10 6 58 9 105 4 48 8 103 10 122 10 106 19 236 41 610 29 509 24
1399 -11 1960 -4 58 -8 134 -10 170 -2 36 -7 94 -10 130 -3 36 -8 94 -11 130
-2 36 -7 85 -9 110 -3 25 -7 72 -10 105 -3 33 -8 80 -11 105 -3 25 -7 65 -9
90 -5 42 -24 210 -30 255 -1 11 -6 49 -10 85 -4 36 -8 67 -10 70 -2 3 -6 34
-10 70 -4 36 -17 135 -30 220 -13 85 -27 173 -30 195 -4 22 -8 51 -11 65 -2
14 -8 52 -14 85 -5 33 -18 110 -29 170 -11 61 -22 126 -26 145 -3 19 -8 42
-11 51 -2 10 -7 30 -9 45 -12 81 -112 557 -135 644 -5 19 -28 112 -50 205 -41
172 -123 483 -166 630 -61 213 -78 269 -115 390 -56 183 -190 582 -246 733
-25 70 -54 150 -64 177 -50 143 -258 666 -314 790 -8 17 -37 84 -65 150 -124
288 -422 908 -571 1185 -75 141 -124 230 -148 273 -11 20 -30 54 -42 75 -34
61 -140 246 -150 262 -5 8 -50 85 -100 170 -440 743 -981 1511 -1553 2205
-106 127 -127 154 -141 169 -6 6 -48 56 -95 111 -47 55 -87 102 -91 105 -3 3
-43 48 -88 100 -349 399 -990 1050 -1311 1330 -17 15 -156 141 -210 190 -15
14 -51 45 -80 70 -84 72 -93 80 -125 108 -17 15 -55 47 -85 72 -30 24 -62 52
-70 60 -8 8 -49 42 -90 75 -41 32 -77 62 -80 65 -25 33 -745 583 -933 713 -37
26 -98 69 -136 96 -181 129 -871 581 -887 581 -3 0 -35 20 -72 44 -37 24 -88
55 -114 69 -25 14 -63 36 -85 50 -85 53 -479 274 -713 399 -100 54 -623 315
-695 348 -27 13 -91 42 -141 65 -50 23 -149 68 -220 99 -71 32 -147 66 -169
76 -22 10 -69 30 -105 45 -36 14 -78 32 -95 40 -73 33 -379 154 -581 231 -722
272 -1519 515 -2209 672 -49 11 -130 30 -180 41 -166 38 -208 47 -265 57 -40
7 -31 6 -165 33 -55 11 -116 23 -135 26 -19 3 -55 10 -80 15 -25 5 -85 16
-135 25 -49 8 -99 17 -110 19 -11 2 -45 7 -75 12 -30 4 -57 8 -60 9 -3 0 -27
4 -53 9 -27 4 -57 9 -66 11 -10 2 -42 6 -72 10 -30 3 -62 8 -71 11 -9 3 -32 7
-50 8 -30 4 -89 11 -158 21 -73 10 -110 15 -155 20 -27 3 -61 8 -75 10 -14 2
-52 6 -85 9 -33 4 -76 8 -95 11 -68 9 -133 15 -295 30 -27 2 -81 7 -120 11
-72 7 -84 8 -245 18 -52 4 -113 9 -136 11 -22 2 -105 7 -185 11 -79 3 -169 8
-199 10 -47 2 -210 6 -778 17 -46 1 -84 1 -85 1z m-6157 -7018 c91 -4 181 -9
200 -11 19 -2 82 -6 140 -10 58 -4 116 -8 130 -10 31 -4 109 -13 175 -20 107
-11 161 -18 240 -31 11 -1 56 -8 100 -14 96 -14 100 -14 245 -41 63 -11 129
-23 145 -26 49 -7 342 -72 455 -99 398 -98 853 -248 1225 -404 204 -86 678
-326 671 -340 -2 -3 -33 -66 -69 -140 -36 -74 -146 -299 -245 -500 -99 -201
-253 -513 -342 -695 -89 -181 -220 -447 -290 -590 -70 -143 -221 -449 -335
-680 -114 -231 -241 -491 -283 -577 -43 -87 -81 -158 -86 -158 -5 0 -36 19
-70 43 -156 110 -385 236 -571 313 -77 31 -268 101 -300 108 -5 2 -30 8 -55
15 -25 7 -52 15 -60 17 -64 18 -302 63 -362 69 -137 15 -454 10 -543 -8 -11
-3 -42 -8 -68 -11 -158 -23 -341 -83 -497 -162 -354 -181 -595 -494 -691 -899
-28 -121 -29 -124 -45 -289 -3 -33 -7 -844 -5 -1041 l1 -51 1593 0 1592 0 0
-1569 0 -1570 -1592 0 -1593 0 -1 -55 c0 -30 0 -2405 0 -5277 -1 -4849 -2
-5223 -17 -5224 -10 0 -1069 -1 -2354 -2 l-2338 -2 0 5280 0 5280 -970 0 -970
0 2 1570 3 1569 968 0 967 0 0 740 c1 408 3 773 5 811 2 39 7 121 10 184 4 63
8 121 10 130 1 9 6 52 9 96 4 44 9 91 11 105 23 152 48 299 61 360 9 41 18 86
20 100 3 14 20 86 39 160 272 1080 896 1971 1820 2599 213 145 672 401 718
401 8 0 20 6 26 14 7 8 23 17 37 20 13 4 48 17 77 30 48 22 82 36 249 101 65
25 302 104 328 110 8 2 70 19 136 39 104 30 320 83 404 100 14 3 61 12 105 21
44 9 94 18 110 20 17 3 39 6 50 9 31 6 116 19 205 31 25 3 56 8 70 10 104 17
423 43 615 51 77 3 141 7 142 7 5 5 501 -1 643 -7z m13645 -6070 c134 -10 286
-24 348 -31 146 -19 187 -24 217 -30 14 -3 45 -8 70 -11 25 -3 52 -7 60 -9 8
-2 30 -7 48 -10 18 -3 65 -12 105 -21 39 -8 83 -18 97 -20 190 -36 584 -159
830 -259 213 -87 531 -244 622 -307 14 -10 29 -18 32 -18 4 0 19 -9 34 -19 15
-10 68 -45 117 -77 185 -120 401 -285 574 -442 98 -88 313 -310 388 -399 10
-12 27 -32 38 -45 31 -37 188 -241 211 -273 198 -286 259 -389 409 -690 139
-281 232 -518 345 -880 48 -155 127 -495 155 -665 8 -48 17 -101 21 -125 11
-53 51 -383 59 -480 12 -141 15 -187 21 -305 12 -210 10 -8750 -1 -8751 -5 0
-1064 -1 -2353 -2 -2076 -2 -2342 0 -2343 13 0 8 -2 1651 -3 3650 -2 1999 -6
3646 -9 3660 -3 14 -8 54 -11 90 -3 36 -12 110 -21 165 -9 55 -19 115 -22 133
-2 18 -18 83 -34 145 -17 61 -34 128 -38 147 -30 126 -151 402 -249 566 -138
231 -335 452 -547 615 -163 123 -367 235 -570 309 -142 52 -373 111 -495 125
-30 4 -57 8 -60 10 -3 2 -55 7 -115 12 -188 14 -479 9 -620 -12 -16 -2 -48 -6
-70 -9 -34 -4 -98 -16 -224 -41 -13 -2 -69 -16 -124 -30 -503 -130 -988 -432
-1309 -814 -40 -47 -75 -88 -78 -91 -18 -16 -196 -276 -214 -310 -4 -8 -22
-42 -41 -75 -163 -289 -282 -625 -370 -1045 -1 -8 -8 -51 -15 -95 -7 -44 -15
-91 -18 -105 -4 -14 -8 -1478 -9 -3255 -2 -1776 -4 -3492 -6 -3812 l-2 -583
-30 28 c-33 30 -276 236 -346 293 -24 20 -87 72 -139 115 -53 44 -113 93 -134
109 -21 17 -67 53 -101 80 -34 28 -113 88 -174 135 -62 47 -122 93 -134 102
-107 84 -523 384 -677 489 -36 24 -66 47 -68 51 -2 5 -10 8 -17 8 -7 0 -15 3
-17 8 -3 7 -59 46 -398 272 -407 272 -798 514 -1205 747 -134 77 -187 106
-460 250 -109 58 -607 305 -764 380 l-65 30 0 5617 -1 5616 2367 0 2368 0 2
-1165 3 -1166 80 123 c110 168 315 451 355 488 3 3 27 32 55 65 574 689 1356
1224 2225 1520 221 75 519 158 650 180 19 3 51 10 70 15 19 5 62 14 95 19 33
6 71 12 85 15 14 3 43 7 65 11 22 3 67 10 100 15 33 5 85 12 115 15 30 3 71 8
90 10 129 15 194 20 385 31 66 3 121 7 122 8 6 5 594 -3 668 -8z"/>
</g>
</svg>
